<?xml version="1.0" standalone="no"?>
<!DOCTYPE svg PUBLIC "-//W3C//DTD SVG 20010904//EN"
 "http://www.w3.org/TR/2001/REC-SVG-20010904/DTD/svg10.dtd">
<svg version="1.0" xmlns="http://www.w3.org/2000/svg"
 width="360.000000pt" height="360.000000pt" viewBox="0 0 360.000000 360.000000"
 preserveAspectRatio="xMidYMid meet">

<g transform="translate(0.000000,360.000000) scale(0.100000,-0.100000)"
fill="#000000" stroke="none">
<path d="M130 2373 l0 -43 305 0 305 0 0 40 0 39 -305 3 -305 3 0 -42z"/>
<path d="M830 2370 l0 -40 433 0 c427 1 432 1 409 20 -13 10 -48 28 -78 39
-51 20 -76 21 -409 21 l-355 0 0 -40z"/>
<path d="M1880 2370 l0 -40 261 0 c235 0 261 2 255 16 -3 9 -9 27 -12 40 l-6
24 -249 0 -249 0 0 -40z"/>
<path d="M2775 2374 c-8 -20 -15 -38 -15 -40 0 -2 117 -4 260 -4 l260 0 0 40
0 40 -245 0 -245 0 -15 -36z"/>
<path d="M130 2204 l0 -44 305 0 305 0 0 39 c0 29 -5 41 -17 45 -10 3 -147 5
-305 5 l-288 0 0 -45z"/>
<path d="M830 2204 l0 -44 486 0 c441 0 486 1 480 16 -3 9 -9 26 -12 39 -4 16
-15 25 -37 29 -18 3 -231 5 -474 5 l-443 -1 0 -44z"/>
<path d="M1880 2204 l0 -44 291 0 290 0 -7 23 c-4 12 -11 32 -15 45 l-9 23
-275 -1 -275 -1 0 -45z"/>
<path d="M2721 2228 c-5 -13 -11 -33 -15 -45 l-7 -23 290 0 291 0 0 44 0 45
-275 1 -275 0 -9 -22z"/>
<path d="M300 2035 l0 -45 130 0 130 0 0 45 0 45 -130 0 -130 0 0 -45z"/>
<path d="M1002 2038 l3 -43 128 -3 127 -3 0 46 0 45 -131 0 -130 0 3 -42z"/>
<path d="M1532 2038 l3 -43 127 -2 c70 -1 130 2 132 5 2 4 6 24 10 45 l7 37
-141 0 -141 0 3 -42z"/>
<path d="M2060 2036 l0 -45 230 -1 c127 0 230 1 230 2 0 2 -7 21 -14 43 l-14
40 -216 3 -216 2 0 -44z"/>
<path d="M2661 2058 c-5 -13 -11 -33 -15 -45 l-7 -21 227 -1 c125 0 229 1 233
3 4 3 5 23 3 45 l-4 41 -214 0 c-213 0 -215 0 -223 -22z"/>
<path d="M300 1870 l0 -40 130 0 130 0 0 40 0 40 -130 0 -130 0 0 -40z"/>
<path d="M1002 1870 l-3 -40 345 0 344 0 32 40 32 40 -374 0 -374 0 -2 -40z"/>
<path d="M2060 1870 l0 -40 124 0 125 0 4 33 3 32 13 -32 13 -33 238 0 238 0
13 33 13 32 3 -32 4 -33 127 0 127 0 0 40 0 40 -250 -2 -249 -3 -10 -32 c-5
-18 -12 -33 -16 -33 -4 0 -11 15 -16 33 l-10 32 -247 3 -247 2 0 -40z"/>
<path d="M300 1700 l0 -40 130 0 130 0 0 40 0 40 -130 0 -130 0 0 -40z"/>
<path d="M1000 1700 l0 -40 376 0 c416 0 385 -5 330 58 l-19 22 -344 0 -343 0
0 -40z"/>
<path d="M2055 1700 l0 -40 130 0 131 0 -1 40 0 40 -130 0 -130 0 0 -40z"/>
<path d="M2387 1700 l16 -40 177 0 177 0 16 40 15 40 -208 0 -208 0 15 -40z"/>
<path d="M2844 1703 l1 -38 130 -3 130 -3 0 41 0 40 -131 0 -131 0 1 -37z"/>
<path d="M306 1572 c-3 -3 -6 -23 -6 -44 l0 -38 130 0 130 0 0 44 0 44 -124 0
c-69 0 -127 -3 -130 -6z"/>
<path d="M1002 1534 l-1 -44 129 0 130 0 0 43 0 43 -129 1 -128 2 -1 -45z"/>
<path d="M1530 1533 l0 -43 141 0 141 0 -7 37 c-4 21 -9 41 -11 45 -3 4 -63 7
-134 6 l-130 -1 0 -44z"/>
<path d="M2060 1535 l0 -45 125 0 125 0 0 44 0 43 -125 2 -125 2 0 -46z"/>
<path d="M2430 1574 c0 -2 7 -22 16 -44 l16 -40 119 0 c131 0 121 -5 143 67 7
22 7 22 -144 21 -82 0 -150 -2 -150 -4z"/>
<path d="M2849 1578 c0 -2 -2 -22 -5 -45 l-6 -43 129 0 c71 0 132 2 134 4 3 3
3 22 1 44 l-4 39 -124 2 c-68 1 -124 1 -125 -1z"/>
<path d="M130 1365 l0 -46 305 2 305 1 0 44 0 44 -305 0 -305 0 0 -45z"/>
<path d="M830 1366 l0 -45 470 0 470 -1 10 26 c6 14 10 34 10 45 0 19 -12 19
-480 19 l-480 0 0 -44z"/>
<path d="M1882 1368 l3 -43 214 0 213 0 2 43 2 42 -218 0 -219 0 3 -42z"/>
<path d="M2496 1388 c20 -65 19 -65 82 -67 l59 -2 17 41 c9 22 16 43 16 45 0
3 -41 5 -91 5 -89 0 -90 0 -83 -22z"/>
<path d="M2843 1368 l3 -43 217 -2 217 -3 0 45 0 45 -220 0 -219 0 2 -42z"/>
<path d="M3390 1297 c-32 -16 -52 -59 -44 -91 22 -91 158 -75 158 19 0 60 -62
99 -114 72z m82 -24 c41 -37 10 -115 -47 -115 -56 0 -83 61 -49 110 18 27 69
30 96 5z"/>
<path d="M3396 1258 c-7 -23 -3 -78 6 -78 4 0 8 9 8 20 0 26 14 25 33 -2 9
-13 16 -18 16 -11 1 6 -4 15 -10 18 -6 5 -4 12 7 20 26 18 11 45 -26 45 -17 0
-32 -6 -34 -12z m54 -13 c0 -8 -9 -15 -20 -15 -11 0 -20 7 -20 15 0 8 9 15 20
15 11 0 20 -7 20 -15z"/>
<path d="M130 1200 l0 -40 305 0 305 0 0 40 0 40 -305 0 -305 0 0 -40z"/>
<path d="M830 1200 l0 -40 348 0 c375 0 404 3 487 55 l40 24 -437 1 -438 0 0
-40z"/>
<path d="M1880 1200 l0 -40 218 0 217 0 0 40 0 40 -217 0 -218 0 0 -40z"/>
<path d="M2554 1224 c3 -9 9 -27 12 -40 8 -31 20 -31 28 0 3 13 9 31 12 40 5
13 -1 16 -26 16 -25 0 -31 -3 -26 -16z"/>
<path d="M2840 1200 l0 -40 220 0 220 0 0 40 0 40 -220 0 -220 0 0 -40z"/>
</g>
</svg>
