<?xml version="1.0" standalone="no"?>
<!DOCTYPE svg PUBLIC "-//W3C//DTD SVG 20010904//EN"
 "http://www.w3.org/TR/2001/REC-SVG-20010904/DTD/svg10.dtd">
<svg version="1.0" xmlns="http://www.w3.org/2000/svg"
 width="274.000000pt" height="274.000000pt" viewBox="0 0 274.000000 274.000000"
 preserveAspectRatio="xMidYMid meet">

<g transform="translate(0.000000,274.000000) scale(0.100000,-0.100000)"
fill="#000000" stroke="none">
<path d="M1338 2592 l-28 -17 0 -227 c0 -184 3 -228 13 -228 8 0 22 -9 32 -20
23 -25 24 -25 63 9 l32 29 0 215 0 216 -29 20 c-34 25 -46 25 -83 3z"/>
<path d="M1188 2517 l-38 -22 0 -281 0 -282 23 -15 c13 -8 41 -20 63 -26 41
-12 77 -37 87 -61 3 -8 6 4 6 28 1 39 -2 45 -34 63 -20 12 -40 29 -45 39 -6
11 -10 136 -10 299 0 155 -3 281 -7 281 -5 -1 -25 -11 -45 -23z"/>
<path d="M1518 2447 c-1 -50 0 -175 1 -277 l4 -185 -28 -33 c-15 -17 -33 -32
-41 -32 -18 0 -34 -32 -34 -70 l0 -32 25 30 c16 19 45 35 82 47 32 10 64 22
71 28 9 7 12 78 12 291 l0 282 -45 22 -45 22 -2 -93z"/>
<path d="M1027 2438 l-37 -22 2 -429 3 -429 50 -28 c92 -50 150 -83 175 -100
14 -10 35 -20 47 -24 11 -4 27 -13 33 -21 14 -16 30 -20 30 -6 0 4 -11 20 -25
35 -14 15 -25 31 -25 35 0 5 -8 12 -17 15 -10 3 -27 12 -38 19 -11 7 -34 22
-51 32 -17 11 -45 32 -62 47 -32 26 -32 28 -32 117 0 50 4 91 9 91 4 0 19 -8
32 -19 13 -10 50 -33 82 -51 31 -17 57 -35 57 -40 0 -4 11 -10 23 -14 13 -3
29 -16 35 -28 10 -22 11 -21 11 9 1 31 -5 36 -79 79 -45 26 -101 65 -126 87
l-45 39 3 314 c2 205 0 314 -7 314 -5 0 -27 -10 -48 -22z"/>
<path d="M1680 2146 l0 -314 -52 -47 c-29 -25 -65 -49 -80 -52 -16 -3 -28 -10
-28 -15 0 -5 -8 -11 -17 -15 -40 -14 -83 -54 -83 -79 0 -13 5 -24 10 -24 6 0
10 6 10 14 0 8 35 36 78 62 42 26 89 55 104 65 51 36 58 28 58 -66 0 -79 -2
-86 -27 -110 -16 -14 -56 -42 -91 -61 -70 -40 -132 -96 -132 -119 0 -17 16
-20 26 -4 3 6 21 18 38 26 17 8 49 25 71 37 22 13 72 40 110 61 39 20 77 43
85 51 13 11 15 70 12 438 l-2 426 -40 20 c-21 11 -42 20 -45 20 -3 0 -5 -141
-5 -314z"/>
<path d="M1065 1401 c-6 -5 -73 -42 -150 -82 -77 -40 -180 -95 -230 -121 -49
-26 -110 -58 -135 -70 l-45 -23 -2 -355 c-2 -195 1 -360 5 -365 4 -6 36 -25
72 -44 74 -38 214 -112 310 -164 36 -19 97 -51 137 -71 68 -34 73 -35 100 -20
85 46 134 73 184 102 l56 32 96 -50 c53 -27 116 -60 141 -74 l44 -25 74 36
c40 20 75 38 78 42 3 3 25 16 50 29 58 30 223 119 275 149 22 12 57 30 78 39
l37 16 -2 360 -3 360 -42 24 c-23 13 -91 49 -150 80 -59 31 -112 60 -118 64
-5 4 -59 33 -120 64 -60 32 -114 62 -119 67 -6 5 -17 9 -25 9 -18 0 -228 -105
-252 -126 -18 -16 -49 -19 -49 -4 0 6 -8 10 -17 10 -10 0 -29 7 -43 14 -14 8
-58 31 -98 51 -40 21 -75 42 -78 46 -7 12 -47 12 -59 0z m93 -102 c34 -17 64
-35 67 -40 4 -5 15 -9 26 -9 44 0 10 -35 -81 -84 -53 -28 -100 -54 -106 -58
-9 -6 -12 -724 -2 -733 1 -1 34 -18 71 -36 124 -62 137 -69 137 -76 0 -11 -33
-43 -44 -43 -6 0 -38 -16 -70 -36 l-60 -36 -35 20 c-20 11 -72 39 -116 63 -44
23 -116 62 -160 86 -44 24 -110 58 -147 76 l-67 32 -1 317 0 316 83 43 c45 23
132 68 192 101 61 32 128 68 150 79 22 11 51 27 65 35 32 18 27 19 98 -17z
m567 -4 c33 -19 94 -51 135 -73 209 -108 277 -146 298 -165 l22 -21 -2 -300
-3 -301 -80 -43 c-44 -24 -109 -59 -145 -78 -36 -19 -83 -45 -105 -57 -122
-69 -179 -97 -193 -97 -28 1 -177 84 -177 99 0 7 45 36 100 65 55 28 103 56
107 61 4 6 8 168 8 361 0 269 -3 354 -12 362 -7 5 -55 31 -105 58 -55 29 -93
55 -93 64 0 8 25 28 58 43 31 16 68 35 82 43 33 18 35 18 105 -21z m-238 -171
c60 -31 111 -61 114 -67 12 -21 15 -615 4 -626 -6 -6 -55 -34 -110 -62 -55
-28 -103 -57 -107 -63 -5 -7 -48 10 -130 53 -68 35 -124 65 -126 66 -1 1 -3
143 -3 315 0 286 1 315 17 324 32 20 219 115 226 116 4 0 56 -25 115 -56z"/>
<path d="M660 790 c0 -15 7 -20 25 -20 14 0 25 -3 25 -7 0 -11 -51 -33 -61
-27 -15 9 -10 -36 5 -52 8 -7 16 -18 18 -22 1 -5 13 -12 25 -16 17 -5 29 -1
48 18 14 14 29 26 32 26 4 0 2 -5 -5 -12 -18 -18 -14 -38 8 -38 18 0 20 7 20
76 0 67 2 75 15 64 10 -9 15 -32 15 -76 0 -50 3 -64 15 -64 12 0 15 14 15 65
0 51 3 65 15 65 8 0 15 5 15 10 0 6 7 10 16 10 11 0 14 -5 10 -16 -3 -9 -6
-18 -6 -20 0 -2 -7 -4 -15 -4 -22 0 -18 -26 8 -63 26 -38 37 -47 58 -47 12 0
15 7 11 25 -2 14 -10 25 -18 25 -7 0 -16 4 -19 10 -7 11 25 70 37 70 4 0 8 9
8 20 0 19 -7 20 -118 20 -78 0 -122 -4 -130 -12 -9 -9 -12 -9 -12 0 0 7 -13
12 -30 12 -23 0 -30 -4 -30 -20z m100 -30 c0 -16 -4 -30 -10 -30 -11 0 -14 43
-3 53 11 12 13 8 13 -23z m-40 -55 c0 -8 -9 -15 -20 -15 -20 0 -26 11 -13 23
12 13 33 7 33 -8z"/>
<path d="M1748 798 c7 -7 12 -28 12 -48 0 -28 8 -44 33 -68 18 -18 41 -32 51
-32 16 0 16 -2 5 -16 -10 -13 -10 -17 2 -25 21 -13 26 -11 33 14 3 14 0 26 -9
33 -17 13 -21 114 -5 114 6 0 10 -9 10 -20 0 -21 33 -60 50 -60 6 0 15 -11 20
-25 6 -15 17 -25 29 -25 16 0 20 8 23 42 2 23 8 43 15 45 8 3 10 -8 6 -36 -7
-51 13 -56 23 -6 9 49 -2 85 -26 85 -11 0 -20 5 -20 10 0 6 9 10 20 10 11 0
20 -4 20 -10 0 -5 5 -10 10 -10 6 0 10 9 10 20 0 19 -7 20 -162 20 -126 0
-159 -3 -150 -12z m89 -51 c-3 -21 -8 -41 -10 -44 -13 -12 -27 11 -27 45 0 32
3 38 21 38 19 0 20 -5 16 -39z m118 23 c7 -23 -2 -60 -16 -60 -5 0 -9 18 -9
40 0 42 14 54 25 20z"/>
<path d="M1383 859 c-7 -7 -9 -18 -6 -25 4 -11 -7 -14 -51 -14 -43 0 -56 -3
-56 -15 0 -8 9 -15 20 -15 13 0 20 -7 20 -20 0 -11 -7 -20 -15 -20 -21 0 -19
-25 8 -65 19 -30 54 -51 65 -40 9 8 -10 45 -24 45 -8 0 -14 5 -14 10 0 15 19
12 36 -5 9 -8 13 -15 9 -15 -4 0 0 -7 9 -15 30 -30 39 -18 34 45 -3 42 0 64 9
72 11 8 13 -3 13 -61 0 -64 2 -71 20 -71 17 0 20 7 20 48 0 26 3 64 6 85 5 30
4 37 -10 37 -9 0 -16 6 -16 14 0 17 -5 21 -41 29 -14 4 -30 2 -36 -4z m47 -29
c0 -5 -7 -10 -15 -10 -8 0 -15 5 -15 10 0 6 7 10 15 10 8 0 15 -4 15 -10z
m-50 -71 c0 -12 -7 -19 -20 -19 -23 0 -26 14 -7 34 15 17 27 11 27 -15z"/>
</g>
</svg>
